HIERARCHY
ROOT __0
{
	OFFSET 0.0 0.0 0.0
	CHANNELS 0
	JOINT spine
	{
		OFFSET 0.000162 -0.056932 1.012679
		CHANNELS 6 Xposition Yposition Zposition Xrotation Yrotation Zrotation
		JOINT spine.001
		{
			OFFSET 0.000320 0.008121 0.058438
			CHANNELS 6 Xposition Yposition Zposition Xrotation Yrotation Zrotation
			JOINT spine.002
			{
				OFFSET -0.001292 0.032221 0.118110
				CHANNELS 6 Xposition Yposition Zposition Xrotation Yrotation Zrotation
				JOINT spine.002_end
				{
					OFFSET -0.001419 0.000034 0.121209
					CHANNELS 3 Xrotation Yrotation Zrotation
					End Site
					{
						OFFSET -0.001419 0.000034 0.121209
					}
				}
			}
		}
		JOINT pelvis.L
		{
			OFFSET -0.000000 -0.000000 -0.000000
			CHANNELS 6 Xposition Yposition Zposition Xrotation Yrotation Zrotation
			JOINT pelvis.L_end
			{
				OFFSET -0.072247 0.002503 -0.038786
				CHANNELS 3 Xrotation Yrotation Zrotation
				End Site
				{
					OFFSET -0.072247 0.002503 -0.038786
				}
			}
		}
		JOINT pelvis.R
		{
			OFFSET -0.000324 -0.000000 -0.000000
			CHANNELS 6 Xposition Yposition Zposition Xrotation Yrotation Zrotation
			JOINT pelvis.R_end
			{
				OFFSET 0.072247 0.002503 -0.038786
				CHANNELS 3 Xrotation Yrotation Zrotation
				End Site
				{
					OFFSET 0.072247 0.002503 -0.038786
				}
			}
		}
		JOINT thigh.L
		{
			OFFSET -0.127459 0.002541 -0.038809
			CHANNELS 6 Xposition Yposition Zposition Xrotation Yrotation Zrotation
			JOINT shin.L
			{
				OFFSET 0.014330 -0.016530 -0.429637
				CHANNELS 6 Xposition Yposition Zposition Xrotation Yrotation Zrotation
				JOINT foot.L
				{
					OFFSET 0.003313 0.024476 -0.456592
					CHANNELS 6 Xposition Yposition Zposition Xrotation Yrotation Zrotation
					JOINT toe.L
					{
						OFFSET -0.002644 0.085599 -0.066570
						CHANNELS 6 Xposition Yposition Zposition Xrotation Yrotation Zrotation
						JOINT toe.L_end
						{
							OFFSET 0.000002 0.066666 -0.008452
							CHANNELS 3 Xrotation Yrotation Zrotation
							End Site
							{
								OFFSET 0.000002 0.066666 -0.008452
							}
						}
					}
					JOINT heel.02.L
					{
						OFFSET 0.049654 -0.016617 -0.087640
						CHANNELS 6 Xposition Yposition Zposition Xrotation Yrotation Zrotation
						JOINT heel.02.L_end
						{
							OFFSET -0.079799 -0.000000 -0.005673
							CHANNELS 3 Xrotation Yrotation Zrotation
							End Site
							{
								OFFSET -0.079799 -0.000000 -0.005673
							}
						}
					}
				}
			}
		}
		JOINT thigh.R
		{
			OFFSET 0.127135 0.002541 -0.038809
			CHANNELS 6 Xposition Yposition Zposition Xrotation Yrotation Zrotation
			JOINT shin.R
			{
				OFFSET -0.014330 -0.016530 -0.429637
				CHANNELS 6 Xposition Yposition Zposition Xrotation Yrotation Zrotation
				JOINT foot.R
				{
					OFFSET -0.003313 0.024476 -0.456592
					CHANNELS 6 Xposition Yposition Zposition Xrotation Yrotation Zrotation
					JOINT toe.R
					{
						OFFSET 0.002644 0.085599 -0.066570
						CHANNELS 6 Xposition Yposition Zposition Xrotation Yrotation Zrotation
						JOINT toe.R_end
						{
							OFFSET -0.000001 0.066666 -0.008452
							CHANNELS 3 Xrotation Yrotation Zrotation
							End Site
							{
								OFFSET -0.000001 0.066666 -0.008452
							}
						}
					}
					JOINT heel.02.R
					{
						OFFSET -0.049654 -0.016617 -0.087641
						CHANNELS 6 Xposition Yposition Zposition Xrotation Yrotation Zrotation
						JOINT heel.02.R_end
						{
							OFFSET 0.079897 -0.000000 -0.004051
							CHANNELS 3 Xrotation Yrotation Zrotation
							End Site
							{
								OFFSET 0.079897 -0.000000 -0.004051
							}
						}
					}
				}
			}
		}
	}
	JOINT spine.003
	{
		OFFSET -0.002228 -0.016557 1.310435
		CHANNELS 6 Xposition Yposition Zposition Xrotation Yrotation Zrotation
		JOINT spine.004
		{
			OFFSET -0.003009 0.000086 0.121993
			CHANNELS 6 Xposition Yposition Zposition Xrotation Yrotation Zrotation
			JOINT spine.005
			{
				OFFSET -0.002254 0.000160 0.129929
				CHANNELS 3 Xrotation Yrotation Zrotation
				JOINT spine.006
				{
					OFFSET -0.000135 -0.000162 0.071697
					CHANNELS 3 Xrotation Yrotation Zrotation
					JOINT spine.006_end
					{
						OFFSET -0.000571 -0.002162 0.198302
						CHANNELS 3 Xrotation Yrotation Zrotation
						End Site
						{
							OFFSET -0.000571 -0.002162 0.198302
						}
					}
				}
			}
		}
		JOINT shoulder.L
		{
			OFFSET -0.003009 0.000086 0.121993
			CHANNELS 6 Xposition Yposition Zposition Xrotation Yrotation Zrotation
			JOINT upper_arm.L
			{
				OFFSET -0.150343 0.010516 0.017190
				CHANNELS 6 Xposition Yposition Zposition Xrotation Yrotation Zrotation
				JOINT forearm.L
				{
					OFFSET -0.168473 -0.042919 -0.099665
					CHANNELS 6 Xposition Yposition Zposition Xrotation Yrotation Zrotation
					JOINT hand.L
					{
						OFFSET -0.195861 -0.007323 -0.130223
						CHANNELS 3 Xrotation Yrotation Zrotation
						JOINT hand.L_end
						{
							OFFSET -0.061460 0.002182 -0.033437
							CHANNELS 3 Xrotation Yrotation Zrotation
							End Site
							{
								OFFSET -0.061460 0.002182 -0.033437
							}
						}
					}
				}
			}
		}
		JOINT shoulder.R
		{
			OFFSET -0.003009 0.000086 0.121993
			CHANNELS 6 Xposition Yposition Zposition Xrotation Yrotation Zrotation
			JOINT upper_arm.R
			{
				OFFSET 0.160819 0.010516 0.017190
				CHANNELS 6 Xposition Yposition Zposition Xrotation Yrotation Zrotation
				JOINT forearm.R
				{
					OFFSET 0.168473 -0.042919 -0.099665
					CHANNELS 3 Xrotation Yrotation Zrotation
					JOINT hand.R
					{
						OFFSET 0.201860 0.019004 -0.120869
						CHANNELS 3 Xrotation Yrotation Zrotation
						JOINT hand.R_end
						{
							OFFSET 0.060711 0.010731 -0.033206
							CHANNELS 3 Xrotation Yrotation Zrotation
							End Site
							{
								OFFSET 0.060711 0.010731 -0.033206
							}
						}
					}
				}
			}
		}
		JOINT breast.L
		{
			OFFSET -0.074125 -0.086365 0.053266
			CHANNELS 6 Xposition Yposition Zposition Xrotation Yrotation Zrotation
			JOINT breast.L_end
			{
				OFFSET -0.000000 0.139200 0.000000
				CHANNELS 3 Xrotation Yrotation Zrotation
				End Site
				{
					OFFSET -0.000000 0.139200 0.000000
				}
			}
		}
		JOINT breast.R
		{
			OFFSET 0.078582 -0.086365 0.053266
			CHANNELS 6 Xposition Yposition Zposition Xrotation Yrotation Zrotation
			JOINT breast.R_end
			{
				OFFSET 0.000000 0.139200 0.000000
				CHANNELS 3 Xrotation Yrotation Zrotation
				End Site
				{
					OFFSET 0.000000 0.139200 0.000000
				}
			}
		}
	}
}
MOTION
Frames: 5
Frame Time: 0.016667
0.000162 -0.056933 1.012679 0.000021 0.000025 -0.000018 0.000320 0.008121 0.058438 0.000017 -0.000016 0.000047 -0.001292 0.032221 0.118110 -0.000014 0.000010 0.000011 -0.000000 0.000000 -0.000000 -0.000000 0.000000 0.000000 -0.000005 -0.000031 0.000027 0.000000 -0.000002 0.000000 -0.000324 0.000000 0.000000 0.000008 -0.000047 0.000004 0.000000 -0.000002 -0.000000 -0.127459 0.002541 -0.038809 -0.974944 19.646723 47.563911 0.014331 -0.016530 -0.429637 -26.109503 -0.516795 -0.164366 0.003315 0.024476 -0.456592 2.516959 -4.124930 1.368118 -0.002642 0.085598 -0.066572 0.005501 0.000035 0.000183 0.000000 -0.000001 -0.000001 0.049654 -0.016617 -0.087642 -0.000084 4.066222 0.000200 0.000001 -0.000002 -0.000001 0.127135 0.002541 -0.038809 -4.368469 -7.054353 5.165959 -0.014330 -0.016530 -0.429637 -34.497701 0.898303 0.483009 -0.003314 0.024476 -0.456592 26.301891 5.465239 -18.154071 0.002643 0.085598 -0.066572 0.020231 0.000016 -0.000184 -0.000004 -0.000000 -0.000001 -0.049654 -0.016617 -0.087642 -0.000096 -2.902794 -0.000218 0.000001 -0.000000 0.000000 -0.002228 -0.016557 1.310435 -7.991792 -0.003146 -0.136835 -0.003009 0.000086 0.121992 -8.442033 0.730295 3.591531 -8.442071 0.730296 3.591579 -8.441987 0.730307 3.591607 0.000002 0.000000 -0.000001 -0.003009 0.000086 0.121992 5.364457 6.602801 -4.406631 -0.150343 0.010516 0.017189 48.051996 -36.585376 -9.154644 -0.168473 -0.042919 -0.099665 26.797854 -8.398097 -45.225527 52.189134 58.710633 75.940290 -0.000001 -0.000001 -0.000001 -0.003009 0.000086 0.121993 6.025141 -17.276163 -8.453885 0.160819 0.010516 0.017190 -21.224726 41.683316 91.128131 33.150617 21.793085 66.441669 17.931220 -20.751441 -50.095152 -0.000001 0.000001 -0.000000 -0.074125 -0.086364 0.053266 0.000024 0.000000 0.000002 -0.000001 0.000000 0.000000 0.078582 -0.086365 0.053266 0.000032 -0.000003 -0.000044 0.000000 -0.000000 0.000000 
0.000162 -0.056933 1.012679 0.000021 0.000025 -0.000018 0.000320 0.008121 0.058438 0.000017 -0.000016 0.000047 -0.001292 0.032221 0.118110 -0.000014 0.000010 0.000011 -0.000000 0.000000 -0.000000 -0.000000 0.000000 0.000000 -0.000005 -0.000031 0.000027 0.000000 -0.000002 0.000000 -0.000324 0.000000 0.000000 0.000008 -0.000047 0.000004 0.000000 -0.000002 -0.000000 -0.127459 0.002541 -0.038809 -1.064619 19.550308 47.327532 0.014331 -0.016530 -0.429637 -25.582043 -0.430979 -0.029184 0.003315 0.024476 -0.456592 2.267159 -4.270740 1.555019 -0.002642 0.085598 -0.066572 0.024230 0.000025 0.000186 -0.000001 -0.000000 0.000002 0.049654 -0.016617 -0.087642 -0.000086 4.066225 0.000200 -0.000001 0.000001 -0.000002 0.127135 0.002541 -0.038809 -4.391241 -6.946384 5.188536 -0.014330 -0.016530 -0.429637 -34.084410 0.911548 0.442860 -0.003314 0.024476 -0.456592 25.362278 5.909307 -18.193932 0.002643 0.085598 -0.066572 0.375926 0.000030 -0.000198 -0.000002 -0.000000 -0.000002 -0.049654 -0.016617 -0.087642 -0.000098 -2.902796 -0.000221 -0.000000 -0.000000 0.000000 -0.002228 -0.016557 1.310435 -8.060246 0.162816 -0.190601 -0.003009 0.000086 0.121992 -8.397562 0.733154 3.601688 -8.397566 0.733154 3.601712 -8.397549 0.733168 3.601758 0.000005 -0.000000 -0.000001 -0.003009 0.000086 0.121992 5.481753 6.538530 -4.172821 -0.150343 0.010516 0.017189 47.818373 -36.591475 -9.497908 -0.168473 -0.042919 -0.099665 26.750117 -8.351145 -45.132295 52.417081 58.766032 75.887069 0.000001 -0.000001 -0.000001 -0.003009 0.000086 0.121992 5.760903 -16.779208 -8.326182 0.160819 0.010516 0.017190 -20.592214 41.455434 90.808635 33.169895 21.834190 66.509397 17.669696 -20.714164 -50.280472 0.000000 0.000001 0.000001 -0.074125 -0.086364 0.053266 0.000025 0.000000 0.000002 -0.000002 0.000000 0.000000 0.078582 -0.086365 0.053266 0.000032 -0.000003 -0.000044 0.000000 -0.000000 -0.000000 
0.000162 -0.056933 1.012679 0.000021 0.000025 -0.000018 0.000320 0.008121 0.058438 0.000017 -0.000016 0.000047 -0.001292 0.032221 0.118110 -0.000014 0.000010 0.000011 -0.000000 0.000000 -0.000000 -0.000000 0.000000 0.000000 -0.000005 -0.000031 0.000027 0.000000 -0.000002 0.000000 -0.000324 0.000000 0.000000 0.000008 -0.000047 0.000004 0.000000 -0.000002 -0.000000 -0.127459 0.002541 -0.038809 -1.112787 19.473158 46.681478 0.014330 -0.016530 -0.429637 -25.114114 -0.344628 0.215428 0.003315 0.024476 -0.456592 2.060380 -4.527119 2.077279 -0.002642 0.085598 -0.066572 0.075730 0.000023 0.000177 -0.000001 -0.000002 0.000002 0.049654 -0.016617 -0.087642 -0.000086 4.066225 0.000195 -0.000000 0.000002 0.000004 0.127135 0.002541 -0.038809 -4.186779 -6.758487 5.286941 -0.014330 -0.016530 -0.429637 -34.084591 0.876546 0.503626 -0.003314 0.024476 -0.456592 24.309611 6.369256 -18.209894 0.002642 0.085598 -0.066572 1.123362 0.000022 -0.000197 0.000001 0.000000 -0.000001 -0.049654 -0.016617 -0.087642 -0.000094 -2.902794 -0.000219 -0.000001 -0.000000 -0.000000 -0.002228 -0.016557 1.310436 -8.228028 0.355808 -0.201832 -0.003009 0.000086 0.121992 -8.336055 0.742986 3.609599 -8.336084 0.742989 3.609649 -8.336026 0.743001 3.609671 0.000002 0.000000 0.000001 -0.003009 0.000086 0.121992 5.604226 6.523530 -3.922734 -0.150343 0.010516 0.017189 47.695358 -36.575332 -9.746683 -0.168473 -0.042919 -0.099665 26.737633 -8.338876 -45.107935 52.486196 58.844416 75.919868 -0.000000 -0.000001 -0.000000 -0.003009 0.000086 0.121992 5.511136 -16.267349 -8.169731 0.160818 0.010516 0.017190 -19.858387 41.250053 90.479133 33.192339 21.882186 66.588395 17.455624 -20.665390 -50.493478 -0.000002 -0.000004 -0.000000 -0.074125 -0.086364 0.053266 0.000024 0.000001 0.000001 -0.000001 -0.000000 -0.000000 0.078582 -0.086364 0.053266 0.000033 -0.000003 -0.000044 -0.000001 -0.000000 -0.000000 
0.000162 -0.056933 1.012679 0.000021 0.000025 -0.000018 0.000320 0.008121 0.058438 0.000017 -0.000016 0.000047 -0.001292 0.032221 0.118110 -0.000014 0.000010 0.000011 -0.000000 0.000000 -0.000000 -0.000000 0.000000 0.000000 -0.000005 -0.000031 0.000027 0.000000 -0.000002 0.000000 -0.000324 0.000000 0.000000 0.000008 -0.000047 0.000004 0.000000 -0.000002 -0.000000 -0.127459 0.002541 -0.038809 -1.130719 19.401443 45.691613 0.014330 -0.016530 -0.429637 -24.708322 -0.256277 0.530589 0.003314 0.024476 -0.456592 1.901030 -4.883323 2.886431 -0.002642 0.085598 -0.066572 0.154244 0.000026 0.000176 -0.000000 0.000000 -0.000004 0.049654 -0.016617 -0.087642 -0.000088 4.066225 0.000196 -0.000002 0.000001 -0.000001 0.127135 0.002541 -0.038809 -3.623173 -6.501980 5.479147 -0.014330 -0.016530 -0.429637 -34.737632 0.764584 0.707550 -0.003314 0.024476 -0.456592 23.193775 6.965600 -18.234305 0.002643 0.085598 -0.066572 2.209323 0.000051 -0.000191 -0.000001 0.000000 -0.000002 -0.049654 -0.016617 -0.087642 -0.000094 -2.902793 -0.000218 -0.000000 -0.000000 -0.000001 -0.002228 -0.016557 1.310436 -8.474744 0.545807 -0.181880 -0.003009 0.000086 0.121992 -8.259163 0.751129 3.622016 -8.259163 0.751130 3.622048 -8.259155 0.751134 3.622100 0.000003 -0.000000 0.000000 -0.003009 0.000086 0.121992 5.727541 6.542156 -3.659148 -0.150343 0.010516 0.017189 47.689016 -36.536273 -9.896642 -0.168473 -0.042919 -0.099665 26.750390 -8.351411 -45.132811 52.419458 58.922601 76.029131 0.000001 -0.000004 -0.000000 -0.003009 0.000086 0.121992 5.271213 -15.731693 -7.978750 0.160819 0.010516 0.017190 -19.025183 41.051725 90.146558 33.212918 21.926347 66.661075 17.287593 -20.616398 -50.722453 -0.000000 0.000003 0.000001 -0.074125 -0.086364 0.053266 0.000023 0.000000 0.000002 -0.000001 0.000000 -0.000000 0.078582 -0.086365 0.053266 0.000032 -0.000003 -0.000044 0.000001 -0.000000 0.000000 
0.000162 -0.056933 1.012679 0.000021 0.000025 -0.000018 0.000320 0.008121 0.058438 0.000017 -0.000016 0.000047 -0.001292 0.032221 0.118110 -0.000014 0.000010 0.000011 -0.000000 0.000000 -0.000000 -0.000000 0.000000 0.000000 -0.000005 -0.000031 0.000027 0.000000 -0.000002 0.000000 -0.000324 0.000000 0.000000 0.000008 -0.000047 0.000004 0.000000 -0.000002 -0.000000 -0.127459 0.002541 -0.038809 -1.105109 19.353008 44.367225 0.014331 -0.016530 -0.429637 -24.444692 -0.212075 0.946057 0.003315 0.024476 -0.456592 1.827454 -5.307614 4.074916 -0.002642 0.085598 -0.066572 0.286634 0.000034 0.000185 -0.000001 -0.000002 0.000002 0.049654 -0.016617 -0.087642 -0.000082 4.066225 0.000197 -0.000000 0.000001 0.000001 0.127135 0.002541 -0.038809 -2.720534 -6.285909 5.641571 -0.014330 -0.016530 -0.429637 -36.037041 0.663231 1.160157 -0.003314 0.024476 -0.456592 22.356785 7.732773 -18.326975 0.002643 0.085598 -0.066572 3.190931 0.000044 -0.000210 -0.000000 0.000000 -0.000001 -0.049654 -0.016617 -0.087642 -0.000094 -2.902793 -0.000221 -0.000002 -0.000000 -0.000001 -0.002228 -0.016557 1.310435 -8.826044 0.705555 -0.124158 -0.003009 0.000086 0.121992 -8.159637 0.754348 3.645486 -8.159647 0.754344 3.645528 -8.159618 0.754363 3.645562 0.000002 -0.000000 0.000001 -0.003009 0.000086 0.121992 5.850121 6.613158 -3.385954 -0.150343 0.010516 0.017190 47.860751 -36.462384 -9.896428 -0.168473 -0.042919 -0.099665 26.794530 -8.394821 -45.219022 52.166516 58.984913 76.244951 0.000001 0.000001 -0.000000 -0.003009 0.000086 0.121992 5.038654 -15.146715 -7.744571 0.160819 0.010516 0.017190 -18.043186 40.855716 89.809010 33.227545 21.957839 66.712862 17.187447 -20.575897 -50.965946 -0.000001 -0.000003 0.000001 -0.074125 -0.086364 0.053266 0.000023 0.000000 0.000002 -0.000000 0.000000 0.000000 0.078582 -0.086365 0.053266 0.000033 -0.000003 -0.000044 -0.000000 -0.000000 -0.000000 
